<svg xmlns="http://www.w3.org/2000/svg" width="180" height="180" viewBox="0 0 100 100">
  <!-- Golden stars -->
  <g fill="none" stroke="#FFD700" stroke-width="2" stroke-linecap="round" stroke-linejoin="round">
    <path d="M50,20 l2,6 l6,2 l-6,2 l-2,6 l-2,-6 l-6,-2 l6,-2 z" fill="#FFD700" opacity="0.8">
      <animate attributeName="opacity" values="0;0.8;0" dur="2s" repeatCount="indefinite"/>
      <animate attributeName="transform" type="translate" values="0,0; 0,-10" dur="2s" repeatCount="indefinite"/>
    </path>
    
    <path d="M35,30 l1.5,4 l4,1.5 l-4,1.5 l-1.5,4 l-1.5,-4 l-4,-1.5 l4,-1.5 z" fill="#FF69B4" opacity="0.8">
      <animate attributeName="opacity" values="0;0.8;0" dur="1.7s" repeatCount="indefinite" begin="0.3s"/>
      <animate attributeName="transform" type="translate" values="0,0; -5,-15" dur="1.7s" repeatCount="indefinite" begin="0.3s"/>
    </path>
    
    <path d="M65,30 l1.5,4 l4,1.5 l-4,1.5 l-1.5,4 l-1.5,-4 l-4,-1.5 l4,-1.5 z" fill="#9370DB" opacity="0.8">
      <animate attributeName="opacity" values="0;0.8;0" dur="1.9s" repeatCount="indefinite" begin="0.5s"/>
      <animate attributeName="transform" type="translate" values="0,0; 5,-15" dur="1.9s" repeatCount="indefinite" begin="0.5s"/>
    </path>
  </g>
  
  <!-- Heart sparkles -->
  <g>
    <path d="M45,35 a3,3,0,0,0,-6,0 a3,3,0,0,0,-6,0 c0,3,6,6,6,6 c0,0,6,-3,6,-6 Z" fill="#FF69B4" opacity="0.8">
      <animate attributeName="opacity" values="0;0.8;0" dur="2.2s" repeatCount="indefinite" begin="0.2s"/>
      <animate attributeName="transform" type="translate" values="0,0; -8,-20" dur="2.2s" repeatCount="indefinite" begin="0.2s"/>
    </path>
    
    <path d="M67,35 a3,3,0,0,0,-6,0 a3,3,0,0,0,-6,0 c0,3,6,6,6,6 c0,0,6,-3,6,-6 Z" fill="#FF69B4" opacity="0.8">
      <animate attributeName="opacity" values="0;0.8;0" dur="2.3s" repeatCount="indefinite" begin="0.7s"/>
      <animate attributeName="transform" type="translate" values="0,0; 8,-20" dur="2.3s" repeatCount="indefinite" begin="0.7s"/>
    </path>
  </g>
  
  <!-- Glowing dots -->
  <circle cx="50" cy="25" r="1.5" fill="#FFFFFF" opacity="0.9">
    <animate attributeName="opacity" values="0;0.9;0" dur="1.5s" repeatCount="indefinite"/>
    <animate attributeName="r" values="1;2;1" dur="1.5s" repeatCount="indefinite"/>
    <animate attributeName="transform" type="translate" values="0,0; 0,-25" dur="1.5s" repeatCount="indefinite"/>
  </circle>
  
  <circle cx="42" cy="30" r="1.2" fill="#FFFFFF" opacity="0.9">
    <animate attributeName="opacity" values="0;0.9;0" dur="1.8s" repeatCount="indefinite" begin="0.2s"/>
    <animate attributeName="r" values="0.8;1.5;0.8" dur="1.8s" repeatCount="indefinite" begin="0.2s"/>
    <animate attributeName="transform" type="translate" values="0,0; -10,-20" dur="1.8s" repeatCount="indefinite" begin="0.2s"/>
  </circle>
  
  <circle cx="58" cy="30" r="1.2" fill="#FFFFFF" opacity="0.9">
    <animate attributeName="opacity" values="0;0.9;0" dur="1.6s" repeatCount="indefinite" begin="0.4s"/>
    <animate attributeName="r" values="0.8;1.5;0.8" dur="1.6s" repeatCount="indefinite" begin="0.4s"/>
    <animate attributeName="transform" type="translate" values="0,0; 10,-20" dur="1.6s" repeatCount="indefinite" begin="0.4s"/>
  </circle>
</svg>